<svg width="1075" height="604" viewBox="0 0 1075 604" fill="none" xmlns="http://www.w3.org/2000/svg">
<path d="M526.963 115.247C521.843 92.8118 513.99 73.035 503.398 55.9229C493.14 38.7988 479.969 25.4106 463.885 15.7693C447.784 5.58431 428.953 0.5 407.411 0.5H251.554H251.054V1V604V604.5H251.554H351.712H352.212V604V374.603L446.808 604.19L446.935 604.5H447.27H571.956H572.47H572.758H572.97H673.128H673.628V604V1V0.5H673.128H572.97H572.47V1V603.913L572.405 603.78L451.54 357.159C479.005 346.932 499.706 327.708 513.638 299.523C527.992 270.64 535.153 233.236 535.153 187.338C535.153 161.712 532.424 137.681 526.963 115.247ZM526.963 115.247C526.963 115.246 526.962 115.245 526.962 115.244L526.476 115.362L526.964 115.251C526.964 115.25 526.963 115.248 526.963 115.247ZM220.223 134.256H220.723V133.756V1V0.5H220.223H1H0.5V1V604V604.5H1H220.223H220.723V604V471.244V470.744H220.223H101.658V367.779H213.58H214.08V367.279V234.523V234.023H213.58H101.658V134.256H220.223ZM813.397 604V344.611L942.756 604.223L942.894 604.5H943.204H1073H1073.83L1073.44 603.767L906.466 286.507L1059.13 1.23592L1059.53 0.5H1058.69H935.028H934.716L934.579 0.779615L813.397 247.565V1V0.5H812.897H712.739H712.239V1V604V604.5H712.739H812.897H813.397V604ZM370.619 270.011H352.212V122.26H370.619C390.26 122.26 405.266 128.613 415.713 141.272C426.173 153.946 431.44 172.209 431.44 196.135C431.44 220.062 426.173 238.325 415.713 250.999C405.266 263.657 390.26 270.011 370.619 270.011Z" stroke="#50F173"/>
</svg>
