<svg width="1088" height="612" viewBox="0 0 1088 612" fill="none" xmlns="http://www.w3.org/2000/svg">
<path d="M219.223 132.756H100.158V233.523H212.58V366.279H100.158V470.244H219.223V603H0V0H219.223V132.756Z" fill="white"/>
<path d="M350.712 269.511H369.619C389.378 269.511 404.538 263.113 415.099 250.317C425.659 237.521 430.94 219.127 430.94 195.135C430.94 171.143 425.659 152.749 415.099 139.954C404.538 127.158 389.378 120.76 369.619 120.76H350.712V269.511ZM570.956 603H446.27L350.712 371.077V603H250.554V0H406.411C427.874 0 446.611 5.06498 462.622 15.1949C478.634 24.7918 491.75 38.1207 501.97 55.1816C512.531 72.2427 520.366 91.9695 525.476 114.362C530.927 136.755 533.653 160.747 533.653 186.338C533.653 232.19 526.498 269.511 512.19 298.301C498.223 326.558 477.442 345.752 449.847 355.882L570.956 603Z" fill="white"/>
<path d="M672.128 0V603H571.97V0H672.128Z" fill="white"/>
<path d="M811.897 248.717L934.028 0H1057.69L904.9 285.505L1072 603H942.204L811.897 341.487V603H711.739V0H811.897V248.717Z" fill="white"/>
</svg>
